<svg width="89" height="80" viewBox="0 0 89 80" fill="none" xmlns="http://www.w3.org/2000/svg">
<path d="M88.8892 0L80.5545 72.2216L44.444 80L8.33291 72.2216L0 0H88.8892ZM72.0944 14.6851H44.4115H16.2382L17.5856 23.4066H44.4115H45.9184L44.4115 23.9083L18.566 32.5199L19.4232 41.0449L44.4115 41.1097L57.8045 41.1436L56.9472 52.5106L44.4113 55.3341V55.3251L44.3086 55.348L32.2021 52.9031L31.4674 45.8471H31.4273H20.1979H20.1584L21.6283 59.4686L44.4117 64.8586V64.8489L44.4528 64.8586L67.1142 59.5667L70.0537 32.5199H44.4117H44.3485L44.4117 32.498L70.993 23.4066L72.0944 14.6851Z" fill="white"/>
</svg>
