<svg width="61" height="87" viewBox="0 0 61 87" fill="none" xmlns="http://www.w3.org/2000/svg">
<path d="M30.5004 3.5H17.1671C9.80332 3.5 3.83386 9.46946 3.83386 16.8332C3.83386 24.1969 9.80332 30.1664 17.1671 30.1664H30.5004V3.5Z" stroke="white" stroke-width="6"/>
<path d="M30.5004 30.1658H17.1671C9.80332 30.1658 3.83386 36.1353 3.83386 43.4988C3.83386 50.8628 9.80332 56.8323 17.1671 56.8323H30.5004V30.1658Z" stroke="white" stroke-width="6"/>
<path d="M57.1662 43.4988C57.1662 50.8628 51.1966 56.8323 43.8327 56.8323C36.4692 56.8323 30.4996 50.8628 30.4996 43.4988C30.4996 36.1353 36.4692 30.1658 43.8327 30.1658C51.1966 30.1658 57.1662 36.1353 57.1662 43.4988Z" stroke="white" stroke-width="6"/>
<path d="M17.1671 56.8335H30.5004V70.1666C30.5004 77.5305 24.5309 83.5 17.1671 83.5C9.80332 83.5 3.83386 77.5305 3.83386 70.1666C3.83386 62.803 9.80332 56.8335 17.1671 56.8335Z" stroke="white" stroke-width="6"/>
<path d="M30.4996 3.5H43.8327C51.1966 3.5 57.1662 9.46946 57.1662 16.8332C57.1662 24.1969 51.1966 30.1664 43.8327 30.1664H30.4996V3.5Z" stroke="white" stroke-width="6"/>
</svg>
