<svg width="80" height="80" viewBox="0 0 80 80" fill="none" xmlns="http://www.w3.org/2000/svg">
<path fillRule="evenodd" clipRule="evenodd" d="M45.2585 9.61495C42.3544 6.71071 37.6455 6.71071 34.7414 9.61495L32.2442 12.1121L38.0738 17.9416C38.6881 17.7773 39.3336 17.6897 40 17.6897C44.1073 17.6897 47.4367 21.0192 47.4367 25.1264C47.4367 25.7926 47.349 26.4384 47.185 27.0527L54.8066 34.6741C55.4208 34.5102 56.0664 34.4224 56.7327 34.4224C60.84 34.4224 64.1694 37.7518 64.1694 41.8592C64.1694 45.9665 60.84 49.2959 56.7327 49.2959C52.6254 49.2959 49.2959 45.9665 49.2959 41.8592C49.2959 41.1928 49.3837 40.5473 49.5477 39.933L43.7183 34.1034V52.1502C45.9412 53.436 47.4367 55.8392 47.4367 58.5919C47.4367 62.6992 44.1073 66.0286 40 66.0286C35.8926 66.0286 32.5632 62.6992 32.5632 58.5919C32.5632 55.8392 34.0587 53.436 36.2816 52.1502V31.5683C34.0587 30.2825 32.5632 27.8791 32.5632 25.1264C32.5632 24.4603 32.651 23.8145 32.8149 23.2002L26.9856 17.3707L9.61495 34.7414C6.71071 37.6455 6.71071 42.3544 9.61495 45.2585L34.7414 70.3851C37.6455 73.2892 42.3544 73.2892 45.2585 70.3851L70.3851 45.2585C73.2892 42.3544 73.2892 37.6455 70.3851 34.7414L45.2585 9.61495ZM29.4828 4.35634C35.2914 -1.45213 44.7086 -1.45211 50.517 4.35638L75.6436 29.4828C81.4521 35.2914 81.4521 44.7086 75.6436 50.517L50.517 75.6436C44.7086 81.4521 35.2914 81.4521 29.4828 75.6436L4.35634 50.517C-1.45213 44.7086 -1.45211 35.2914 4.35638 29.4828L29.4828 4.35634Z" fill="white"/>
</svg>
