<svg width="81" height="80" viewBox="0 0 81 80" fill="none" xmlns="http://www.w3.org/2000/svg">
<path fillRule="evenodd" clipRule="evenodd" d="M0.579594 0C0.490358 0.0129941 0.496933 0.120548 0.503352 0.228258C0.503352 26.7908 0.503352 53.3492 0.503352 79.9111C27.0183 80.0888 53.8588 79.9364 80.5 79.9871C80.5 53.3243 80.5 26.6627 80.5 0C53.8608 0 27.219 0 0.579594 0ZM41.1095 70.7111C39.2587 72.577 36.338 73.6759 32.7449 73.6759C26.8517 73.6759 23.5797 70.8047 21.4911 66.8327C23.5015 65.549 25.5562 64.3087 27.6506 63.1075C28.5048 65.4968 31.3901 68.183 34.646 66.5293C36.7098 65.4805 36.4716 62.3007 36.4716 58.8496C36.4716 51.6836 36.4716 43.4167 36.4716 36.9519C36.465 36.8441 36.4586 36.7366 36.547 36.7236C39.006 36.7236 41.4649 36.7236 43.9233 36.7236C43.9233 42.483 43.9233 48.9979 43.9233 55.1234C43.9233 61.7924 44.3999 67.3954 41.1095 70.7111ZM74.1119 64.0966C73.6933 70.3407 68.5944 73.6563 61.7174 73.6759C54.9758 73.6953 50.6608 70.6993 48.0293 66.0725C49.9213 64.7704 52.065 63.7215 54.0371 62.4996C55.6152 64.967 58.3482 67.3387 62.4017 66.9852C64.9271 66.7651 67.8586 64.7065 66.2037 61.5868C65.401 60.0745 63.4615 59.3063 61.7174 58.5457C56.1829 56.131 49.6896 53.9162 50.3106 45.2398C50.5184 42.3413 51.853 40.3043 53.5809 38.8529C55.3517 37.3656 57.7234 36.3688 60.8809 36.268C66.6154 36.0844 69.7613 38.6351 71.907 42.199C70.0809 43.5909 68.0692 44.799 66.0517 46.0003C65.3896 43.9659 62.1935 41.9834 59.512 43.1872C58.2926 43.734 57.1969 45.3415 57.8394 47.2927C58.4124 49.0328 60.7496 49.9853 62.6298 50.7908C68.3209 53.2268 74.681 55.6075 74.1119 64.0966Z" fill="white"/>
</svg>
