<svg width="90" height="80" viewBox="0 0 90 80" fill="none" xmlns="http://www.w3.org/2000/svg">
<path d="M44.6891 32.1222C46.2231 32.1223 47.7227 32.5762 48.9992 33.4268C50.2758 34.2774 51.2721 35.4866 51.8629 36.9023C52.4536 38.3179 52.6123 39.8767 52.3191 41.3824C52.0258 42.888 51.2936 44.2733 50.2147 45.3637C49.1358 46.4541 47.7585 47.201 46.256 47.5103C44.7536 47.8195 43.1932 47.6774 41.7713 47.1017C40.3495 46.5261 39.1297 45.5427 38.2656 44.2752C37.4015 43.0078 36.9317 41.5131 36.9153 39.9792C36.9098 38.9529 37.1065 37.9355 37.4942 36.9852C37.882 36.0349 38.453 35.1703 39.1749 34.4407C39.8968 33.7111 40.7553 33.1308 41.7014 32.733C42.6475 32.3352 43.6628 32.1277 44.6891 32.1222ZM25.4416 73.2362C28.0606 74.8159 33.7559 72.4048 40.4073 66.1691C38.1842 63.6428 36.0891 61.0067 34.13 58.2706C30.777 57.895 27.4465 57.34 24.1529 56.6077C22.0328 65.504 22.8226 71.6149 25.4416 73.2362ZM28.3932 49.3743L27.1876 47.2542C26.7177 48.4218 26.3151 49.6155 25.982 50.8293C27.1045 51.0787 28.3516 51.2866 29.6403 51.4945L28.3932 49.3743ZM55.5808 46.2149L58.948 39.9792L55.5808 33.7435C54.3336 31.5403 53.0033 29.5864 51.7978 27.6326C49.5529 27.5078 47.1834 27.5078 44.6891 27.5078C42.1948 27.5078 39.8253 27.5078 37.5804 27.5078C36.3748 29.4617 35.0446 31.4155 33.7974 33.6188L30.4302 39.9792L33.7974 46.2149C35.0446 48.4182 36.3748 50.372 37.5804 52.3259C39.8253 52.3259 42.1948 52.3259 44.6891 52.3259C47.1834 52.3259 49.5529 52.3259 51.7978 52.3259C53.0033 50.372 54.3336 48.4182 55.5808 46.2149ZM44.6891 18.279C43.8992 19.1936 43.0678 20.1497 42.2364 21.2722H47.1418C46.3104 20.1497 45.479 19.1936 44.6891 18.279ZM44.6891 61.6794C45.479 60.7648 46.3104 59.8087 47.1418 58.6863H42.2364C43.0678 59.8087 43.8992 60.7648 44.6891 61.6794ZM63.895 6.72221C61.3176 5.1425 55.5808 7.55363 48.9709 13.7893C51.194 16.3156 53.2891 18.9518 55.2482 21.6879C58.5982 22.0085 61.9287 22.508 65.2253 23.1844C67.3454 14.2882 66.5556 8.1772 63.895 6.55592M60.985 30.4178L62.1906 32.538C62.6605 31.3703 63.0631 30.1766 63.3962 28.9628C62.2737 28.7134 61.0266 28.5055 59.7379 28.2977L60.985 30.4178ZM67.0129 1.31795C73.1238 4.80993 73.789 13.9972 71.17 24.7226C81.7291 27.8404 89.3366 33.0368 89.3366 40.0208C89.3366 47.0048 81.7291 52.2012 71.17 55.319C73.7474 66.0444 73.0823 75.2316 67.0129 78.7236C60.9435 82.2156 52.6708 78.2248 44.6891 70.6172C36.7074 78.2248 28.4347 82.2156 22.3238 78.7236C16.2128 75.2316 15.5892 66.2523 18.1666 55.319C7.60754 52.2012 0 47.0048 0 40.0208C0 33.0368 7.60754 27.7988 18.1666 24.681C15.5892 13.9556 16.2544 4.76836 22.3238 1.27637C28.3932 -2.21561 36.7074 1.77523 44.6891 9.38277C52.6708 1.77523 60.9435 -2.21561 67.0129 1.27637M65.8073 39.9792C67.2511 43.0395 68.5278 46.1758 69.6319 49.3743C78.3618 46.7553 83.2672 43.0139 83.2672 39.9792C83.2672 36.9445 78.2371 33.2031 69.6319 30.5841C68.5278 33.7827 67.2511 36.919 65.8073 39.9792ZM23.5709 39.9792C22.1271 36.919 20.8504 33.7827 19.7463 30.5841C11.0164 33.2031 6.11097 36.9445 6.11097 39.9792C6.11097 43.0139 11.1411 46.7553 19.7463 49.3743C20.8504 46.1758 22.1271 43.0395 23.5709 39.9792ZM60.985 49.3743L59.7379 51.4945C61.0266 51.4945 62.2737 51.0787 63.3962 50.8293C63.0631 49.6155 62.6605 48.4218 62.1906 47.2542L60.985 49.3743ZM48.8462 66.1691C55.4561 72.4048 61.3176 74.8159 63.7703 73.2362C66.223 71.6565 67.2207 65.6703 65.1006 56.6077C61.8039 57.2841 58.4735 57.7837 55.1235 58.1043C53.1689 60.8971 51.0738 63.5888 48.8462 66.1691ZM28.3932 30.5841L29.6403 28.464C28.3516 28.464 27.1045 28.8797 25.982 29.1291C26.3151 30.3429 26.7177 31.5366 27.1876 32.7042L28.3932 30.5841ZM40.532 13.7893C33.7974 7.55363 28.0606 5.1425 25.4416 6.72221C22.8226 8.30192 22.0328 14.2882 24.1529 23.3507C27.4495 22.6743 30.78 22.1747 34.13 21.8541C36.125 19.0584 38.2618 16.3666 40.532 13.7893Z" fill="white"/>
</svg>
